# xmcd
#
# Track frame offsets:
#	150
#	10957
#	20731
#	30495
#	41435
#	54305
#	63667
#	72805
#	83623
#	95503
#	106349
#	117811
#	128147
#	140054
#	149934
#	162684
#	171213
#	181911
#	191950
#	204239
#	219274
#
# Disc length: 3108 seconds
#
# Revision: 1
# Processed by: cddbd v1.5.2PL0 Copyright (c) Steve Scherf et al.
# Submitted via: EasyCDDAExtractor 7.0.3.1
#
DISCID=340c2215
DTITLE=Browns, The - Soft As the Voice Of An Angel
DYEAR=1900
DGENRE=Easy Listening
TTITLE0=The Wayward Wind
TTITLE1=Oh! My PaPa 
TTITLE2=True Love
TTITLE3=The Whiffenpoof Song
TTITLE4=The Three Bells
TTITLE5=Heaven Fell Last Night
TTITLE6=Buttons and Bows
TTITLE7=Blue Bells Ring
TTITLE8=Born To Be With You
TTITLE9=You Can't Grow Peaches on a Cherry Tree
TTITLE10=Four Strong Winds
TTITLE11=Poor Wayfaring Stranger
TTITLE12=Scarlet Ribbons (For Her Hair)
TTITLE13=The Old Master Painter
TTITLE14=Margo (The Ninth of May)
TTITLE15=Teen-Ex
TTITLE16=The Old Lamplighter
TTITLE17=Misty Blue
TTITLE18=In The Garden
TTITLE19=Whispering Hope
TTITLE20=How Great Thou Art
EXTD=
EXTT0=
EXTT1=
EXTT2=
EXTT3=
EXTT4=
EXTT5=
EXTT6=
EXTT7=
EXTT8=
EXTT9=
EXTT10=
EXTT11=
EXTT12=
EXTT13=
EXTT14=
EXTT15=
EXTT16=
EXTT17=
EXTT18=
EXTT19=
EXTT20=
PLAYORDER=
